<svg xmlns="http://www.w3.org/2000/svg" width="712" height="400" class="svgbob"><style>.svgbob line, .svgbob path, .svgbob circle, .svgbob rect, .svgbob polygon {
    stroke: black;
    stroke-width: 2;
    stroke-opacity: 1;
    fill-opacity: 1;
    stroke-linecap: round;
    stroke-linejoin: miter;
}
.svgbob text {
    white-space: pre;
    fill: black;
    font-family: Iosevka Fixed, monospace;
    font-size: 14px;
}
.svgbob rect.backdrop {
    stroke: none;
    fill: white;
}
.svgbob .broken {
    stroke-dasharray: 8;
}
.svgbob .filled {
    fill: black;
}
.svgbob .bg_filled {
    fill: white;
    stroke-width: 1;
}
.svgbob .nofill {
    fill: white;
}
.svgbob .end_marked_arrow {
    marker-end: url(#arrow);
}
.svgbob .start_marked_arrow {
    marker-start: url(#arrow);
}
.svgbob .end_marked_diamond {
    marker-end: url(#diamond);
}
.svgbob .start_marked_diamond {
    marker-start: url(#diamond);
}
.svgbob .end_marked_circle {
    marker-end: url(#circle);
}
.svgbob .start_marked_circle {
    marker-start: url(#circle);
}
.svgbob .end_marked_open_circle {
    marker-end: url(#open_circle);
}
.svgbob .start_marked_open_circle {
    marker-start: url(#open_circle);
}
.svgbob .end_marked_big_open_circle {
    marker-end: url(#big_open_circle);
}
.svgbob .start_marked_big_open_circle {
    marker-start: url(#big_open_circle);
}<!--separator--></style><defs><marker id="arrow" viewBox="-2 -2 8 8" refX="4" refY="2" markerWidth="7" markerHeight="7" orient="auto-start-reverse"><polygon points="0,0 0,4 4,2 0,0"></polygon></marker><marker id="diamond" viewBox="-2 -2 8 8" refX="4" refY="2" markerWidth="7" markerHeight="7" orient="auto-start-reverse"><polygon points="0,2 2,0 4,2 2,4 0,2"></polygon></marker><marker id="circle" viewBox="0 0 8 8" refX="4" refY="4" markerWidth="7" markerHeight="7" orient="auto-start-reverse"><circle cx="4" cy="4" r="2" class="filled"></circle></marker><marker id="open_circle" viewBox="0 0 8 8" refX="4" refY="4" markerWidth="7" markerHeight="7" orient="auto-start-reverse"><circle cx="4" cy="4" r="2" class="bg_filled"></circle></marker><marker id="big_open_circle" viewBox="0 0 8 8" refX="4" refY="4" markerWidth="7" markerHeight="7" orient="auto-start-reverse"><circle cx="4" cy="4" r="3" class="bg_filled"></circle></marker></defs><rect class="backdrop" x="0" y="0" width="712" height="400"></rect><text x="58" y="12" >.</text><text x="138" y="12" >.</text><text x="138" y="28" >*</text><text x="130" y="44" >.</text><text x="234" y="12" >.:</text><text x="266" y="12" >*</text><text x="330" y="12" >.</text><text x="418" y="12" >.</text><text x="386" y="28" >.</text><text x="394" y="44" >.</text><text x="434" y="28" >.</text><text x="482" y="28" >*</text><text x="538" y="28" >.</text><text x="650" y="28" >.</text><text x="18" y="44" >:</text><text x="226" y="44" >.</text><text x="274" y="44" >.</text><line x1="60" y1="48" x2="60" y2="68" class="solid"></line><line x1="48" y1="72" x2="60" y2="72" class="solid end_marked_circle"></line><line x1="56" y1="72" x2="72" y2="72" class="solid"></line><line x1="60" y1="76" x2="60" y2="96" class="solid"></line><text x="298" y="60" >'</text><text x="322" y="60" >.</text><text x="314" y="76" >.</text><text x="10" y="76" >.</text><text x="98" y="76" >.</text><text x="114" y="76" >.</text><text x="186" y="76" >.</text><text x="426" y="76" >.</text><text x="266" y="92" >.</text><text x="570" y="92" >.</text><text x="698" y="92" >.</text><text x="34" y="108" >:</text><line x1="24" y1="120" x2="48" y2="120" class="solid"></line><line x1="36" y1="112" x2="36" y2="120" class="solid end_marked_circle"></line><line x1="36" y1="124" x2="36" y2="128" class="solid"></line><text x="34" y="140" >:</text><text x="138" y="108" >.</text><text x="146" y="124" >*</text><text x="146" y="140" >.</text><text x="674" y="108" >.</text><text x="482" y="124" >.</text><line x1="320" y1="128" x2="304" y2="160" class="solid"></line><line x1="328" y1="128" x2="304" y2="176" class="solid"></line><line x1="320" y1="160" x2="312" y2="176" class="solid"></line><line x1="336" y1="128" x2="328" y2="144" class="solid"></line><line x1="344" y1="128" x2="320" y2="176" class="solid"></line><line x1="344" y1="144" x2="328" y2="176" class="solid"></line><line x1="360" y1="128" x2="336" y2="176" class="solid"></line><line x1="368" y1="128" x2="360" y2="144" class="solid"></line><line x1="384" y1="128" x2="368" y2="160" class="solid"></line><line x1="392" y1="128" x2="384" y2="144" class="solid"></line><line x1="400" y1="144" x2="384" y2="176" class="solid"></line><line x1="408" y1="150" x2="424" y2="150" class="solid"></line><line x1="408" y1="154" x2="424" y2="154" class="solid"></line><line x1="400" y1="166" x2="432" y2="166" class="solid"></line><line x1="400" y1="170" x2="432" y2="170" class="solid"></line><text x="482" y="172" >^^</text><line x1="300" y1="184" x2="336" y2="184" class="broken"></line><text x="362" y="188" >u</text><line x1="300" y1="192" x2="300" y2="256" class="solid"></line><text x="306" y="204" >u</text><text x="322" y="204" >u</text><line x1="372" y1="192" x2="372" y2="256" class="solid"></line><text x="378" y="204" >u</text><line x1="468" y1="192" x2="468" y2="224" class="solid"></line><text x="490" y="204" >U</text><line x1="500" y1="192" x2="500" y2="224" class="solid"></line><line x1="304" y1="214" x2="328" y2="214" class="solid"></line><line x1="304" y1="218" x2="328" y2="218" class="solid"></line><text x="362" y="220" >u</text><line x1="376" y1="214" x2="392" y2="214" class="solid"></line><line x1="376" y1="218" x2="392" y2="218" class="solid"></line><text x="306" y="236" >u</text><text x="322" y="236" >u</text><text x="442" y="236" >U</text><line x1="448" y1="232" x2="456" y2="232" class="broken"></line><text x="458" y="236" >U</text><line x1="464" y1="232" x2="472" y2="232" class="broken"></line><text x="474" y="236" >U</text><line x1="480" y1="232" x2="488" y2="232" class="broken"></line><text x="490" y="236" >U</text><text x="578" y="236" >aa@@@@</text><line x1="304" y1="246" x2="328" y2="246" class="solid"></line><line x1="304" y1="250" x2="328" y2="250" class="solid"></line><text x="362" y="252" >u</text><text x="506" y="252" >aa</text><text x="554" y="252" >a@@@@@@@@</text><line x1="160" y1="264" x2="256" y2="264" class="broken"></line><text x="258" y="268" >.</text><line x1="280" y1="264" x2="288" y2="264" class="solid"></line><line x1="320" y1="264" x2="424" y2="264" class="broken"></line><text x="426" y="268" >..</text><line x1="440" y1="272" x2="460" y2="272" class="solid"></line><text x="490" y="268" >.@@@@@@a</text><line x1="584" y1="264" x2="632" y2="264" class="broken"></line><line x1="200" y1="272" x2="208" y2="288" class="solid"></line><line x1="296" y1="280" x2="304" y2="280" class="broken"></line><text x="410" y="284" >`.</text><text x="450" y="284" >:</text><line x1="488" y1="280" x2="520" y2="280" class="broken"></line><text x="170" y="300" >a</text><text x="186" y="300" >`|</text><text x="210" y="300" >`</text><text x="282" y="300" >|</text><text x="402" y="300" >`</text><line x1="420" y1="288" x2="388" y2="320" class="broken"></line><text x="418" y="300" >'</text><text x="442" y="300" >,</text><line x1="452" y1="288" x2="452" y2="292" class="solid"></line><line x1="460" y1="288" x2="460" y2="292" class="solid"></line><text x="514" y="300" >aa@@@@@@@a</text><text x="146" y="316" >a@@@@</text><line x1="208" y1="304" x2="216" y2="320" class="solid"></line><text x="250" y="316" >'</text><text x="338" y="316" >`</text><text x="386" y="316" >`</text><line x1="436" y1="304" x2="380" y2="360" class="broken"></line><text x="434" y="316" >'</text><line x1="436" y1="320" x2="436" y2="340" class="solid"></line><line x1="452" y1="304" x2="452" y2="324" class="solid"></line><text x="490" y="316" >aa@@@@@@@@@@@@@a</text><line x1="152" y1="328" x2="192" y2="328" class="broken"></line><line x1="208" y1="320" x2="216" y2="336" class="solid"></line><text x="218" y="332" >`</text><line x1="260" y1="320" x2="260" y2="336" class="solid"></line><line x1="272" y1="320" x2="280" y2="336" class="solid"></line><text x="346" y="332" >`</text><line x1="412" y1="332" x2="412" y2="372" class="solid"></line><line x1="512" y1="328" x2="568" y2="328" class="broken"></line><line x1="584" y1="328" x2="600" y2="328" class="broken"></line><text x="250" y="348" >.`</text><text x="282" y="348" >`</text><text x="346" y="348" >:</text><line x1="396" y1="348" x2="396" y2="384" class="solid"></line><text x="458" y="348" >aa</text><text x="186" y="364" >a@@@</text><line x1="276" y1="352" x2="276" y2="368" class="solid"></line><line x1="320" y1="352" x2="312" y2="368" class="solid"></line><line x1="340" y1="352" x2="316" y2="376" class="broken"></line><text x="338" y="364" >'</text><text x="378" y="364" >.</text><text x="442" y="364" >@@@@@@a</text><text x="162" y="380" >a@@@@@@@</text><text x="258" y="380" >|</text><text x="274" y="380" >`</text><line x1="284" y1="368" x2="284" y2="384" class="solid"></line><text x="298" y="380" >''.</text><text x="370" y="380" >.'</text><text x="434" y="380" >@@@@@@@@@a</text><text x="114" y="140" >.</text><text x="106" y="156" >*</text><text x="98" y="172" >:</text><text x="218" y="140" >.</text><text x="258" y="140" >.</text><text x="458" y="140" >.</text><text x="602" y="140" >.</text><text x="82" y="156" >.</text><text x="10" y="172" >.</text><text x="250" y="172" >*</text><text x="570" y="172" >*</text><text x="50" y="188" >.</text><text x="202" y="188" >.</text><text x="154" y="204" >.</text><text x="234" y="220" >.</text><text x="82" y="236" >aaa</text><text x="42" y="252" >aaa@@@@@@aa</text><text x="10" y="268" >aa@@@@@@@@@@@@@@a</text><line x1="24" y1="280" x2="72" y2="280" class="broken"></line><line x1="104" y1="280" x2="128" y2="280" class="broken"></line><text x="10" y="316" >aaa</text><text x="58" y="316" >aaaa</text><text x="2" y="332" >@@@@@a@@@@@@a</text><text x="2" y="348" >@S.C.E.S.W.@@@@a</text><line x1="0" y1="360" x2="56" y2="360" class="broken"></line><line x1="64" y1="360" x2="112" y2="360" class="broken"></line><g><line x1="376" y1="128" x2="360" y2="160" class="solid"></line><line x1="352" y1="160" x2="344" y2="176" class="solid"></line><line x1="348" y1="168" x2="364" y2="168" class="broken"></line><line x1="360" y1="160" x2="368" y2="176" class="solid"></line><line x1="376" y1="160" x2="368" y2="176" class="solid"></line></g><g><line x1="400" y1="128" x2="380" y2="168" class="solid"></line><line x1="380" y1="168" x2="380" y2="176" class="solid"></line></g><g><line x1="416" y1="128" x2="396" y2="168" class="solid"></line><line x1="416" y1="128" x2="436" y2="168" class="solid"></line><line x1="396" y1="168" x2="396" y2="256" class="solid"></line><line x1="436" y1="168" x2="436" y2="256" class="solid"></line><line x1="380" y1="184" x2="396" y2="184" class="broken"></line><line x1="496" y1="232" x2="508" y2="232" class="broken"></line><line x1="508" y1="224" x2="508" y2="232" class="solid"></line><line x1="508" y1="232" x2="496" y2="256" class="solid"></line><line x1="436" y1="256" x2="496" y2="256" class="solid"></line><line x1="456" y1="240" x2="448" y2="256" class="solid"></line><line x1="472" y1="240" x2="464" y2="256" class="solid"></line><line x1="488" y1="240" x2="480" y2="256" class="solid"></line><line x1="472" y1="256" x2="464" y2="272" class="solid"></line><line x1="464" y1="272" x2="480" y2="272" class="solid"></line><line x1="488" y1="256" x2="480" y2="272" class="solid"></line><line x1="472" y1="272" x2="468" y2="280" class="solid"></line><line x1="468" y1="280" x2="468" y2="312" class="solid"></line><line x1="468" y1="312" x2="456" y2="336" class="solid"></line></g><g><line x1="484" y1="128" x2="484" y2="132" class="solid"></line><path d="M 484,132 A 16,16 0,0,1 482,140" class="nofill"></path><path d="M 484,132 A 16,16 0,0,0 486,140" class="nofill"></path></g><g><line x1="484" y1="136" x2="460" y2="184" class="solid"></line><line x1="484" y1="136" x2="508" y2="184" class="solid"></line><line x1="460" y1="184" x2="508" y2="184" class="broken"></line></g><g><line x1="352" y1="176" x2="348" y2="184" class="solid"></line><line x1="348" y1="184" x2="348" y2="256" class="solid"></line><line x1="352" y1="176" x2="356" y2="184" class="solid"></line><line x1="356" y1="184" x2="356" y2="256" class="solid"></line></g><g><line x1="412" y1="184" x2="428" y2="184" class="solid"></line><line x1="412" y1="184" x2="412" y2="248" class="solid"></line><line x1="420" y1="184" x2="420" y2="248" class="solid"></line><line x1="428" y1="184" x2="428" y2="248" class="solid"></line><line x1="412" y1="216" x2="428" y2="216" class="solid"></line><line x1="412" y1="248" x2="428" y2="248" class="solid"></line></g><g><line x1="380" y1="232" x2="388" y2="232" class="solid"></line><line x1="380" y1="232" x2="380" y2="256" class="solid"></line><line x1="388" y1="232" x2="388" y2="256" class="solid"></line></g><g><line x1="268" y1="264" x2="244" y2="312" class="solid"></line><line x1="268" y1="264" x2="280" y2="288" class="solid"></line><line x1="272" y1="272" x2="280" y2="272" class="solid"></line><line x1="272" y1="272" x2="256" y2="304" class="solid"></line><line x1="240" y1="304" x2="248" y2="304" class="solid"></line><line x1="240" y1="304" x2="220" y2="344" class="solid"></line><line x1="244" y1="312" x2="244" y2="344" class="solid"></line><line x1="244" y1="344" x2="256" y2="368" class="solid"></line><line x1="196" y1="304" x2="196" y2="312" class="solid"></line><line x1="196" y1="312" x2="232" y2="384" class="solid"></line><line x1="240" y1="320" x2="220" y2="360" class="solid"></line><line x1="220" y1="344" x2="220" y2="368" class="solid"></line></g><g><line x1="296" y1="264" x2="316" y2="264" class="solid"></line><path d="M 316,264 A 8,8 0,0,1 324,272" class="nofill"></path><path d="M 312,280 A 8,8 0,0,0 306,284" class="nofill"></path><line x1="306" y1="284" x2="296" y2="304" class="solid"></line><line x1="312" y1="280" x2="324" y2="280" class="broken"></line><line x1="324" y1="272" x2="324" y2="296" class="solid"></line><line x1="324" y1="296" x2="300" y2="344" class="solid"></line><line x1="324" y1="296" x2="344" y2="336" class="solid"></line><line x1="312" y1="304" x2="324" y2="304" class="solid"></line><line x1="284" y1="304" x2="284" y2="312" class="solid"></line><line x1="284" y1="312" x2="300" y2="344" class="solid"></line><line x1="312" y1="304" x2="296" y2="336" class="solid"></line></g><g><path d="M 396,264 A 8,8 0,0,0 388,272" class="nofill"></path><path d="M 396,264 A 8,8 0,0,1 404,272" class="nofill"></path><line x1="388" y1="272" x2="388" y2="304" class="solid"></line><line x1="404" y1="272" x2="404" y2="288" class="solid"></line></g><g><line x1="160" y1="272" x2="168" y2="288" class="solid"></line><line x1="168" y1="288" x2="184" y2="288" class="solid"></line><line x1="176" y1="272" x2="184" y2="288" class="solid"></line><line x1="176" y1="288" x2="192" y2="320" class="solid"></line></g><g><line x1="184" y1="272" x2="192" y2="288" class="solid"></line><line x1="188" y1="280" x2="188" y2="288" class="solid"></line></g><g><line x1="224" y1="272" x2="232" y2="288" class="solid"></line><line x1="240" y1="272" x2="232" y2="288" class="solid"></line><line x1="236" y1="280" x2="248" y2="280" class="broken"></line></g><g><line x1="340" y1="288" x2="364" y2="288" class="solid"></line><line x1="340" y1="288" x2="340" y2="304" class="solid"></line><line x1="348" y1="288" x2="348" y2="320" class="solid"></line><line x1="364" y1="288" x2="364" y2="320" class="solid"></line></g><g><path d="M 372,328 A 8,8 0,0,0 364,336" class="nofill"></path><line x1="372" y1="328" x2="388" y2="328" class="solid"></line><path d="M 396,320 A 8,8 0,0,1 388,328" class="nofill"></path></g><g><line x1="320" y1="336" x2="304" y2="368" class="solid"></line><line x1="316" y1="344" x2="328" y2="344" class="broken"></line></g><g><line x1="352" y1="344" x2="364" y2="344" class="solid"></line><path d="M 372,336 A 8,8 0,0,1 364,344" class="nofill"></path></g><g><line x1="448" y1="336" x2="440" y2="352" class="solid"></line><line x1="444" y1="344" x2="456" y2="344" class="broken"></line></g><g><line x1="256" y1="352" x2="260" y2="360" class="solid"></line><line x1="260" y1="360" x2="260" y2="368" class="solid"></line></g><g><line x1="436" y1="352" x2="436" y2="360" class="solid"></line><line x1="436" y1="360" x2="424" y2="384" class="solid"></line></g></svg>