<svg xmlns="http://www.w3.org/2000/svg" width="328" height="320" class="svgbob"><style>.svgbob line, .svgbob path, .svgbob circle, .svgbob rect, .svgbob polygon {
    stroke: black;
    stroke-width: 2;
    stroke-opacity: 1;
    fill-opacity: 1;
    stroke-linecap: round;
    stroke-linejoin: miter;
}
.svgbob text {
    white-space: pre;
    fill: black;
    font-family: Iosevka Fixed, monospace;
    font-size: 14px;
}
.svgbob rect.backdrop {
    stroke: none;
    fill: white;
}
.svgbob .broken {
    stroke-dasharray: 8;
}
.svgbob .filled {
    fill: black;
}
.svgbob .bg_filled {
    fill: white;
    stroke-width: 1;
}
.svgbob .nofill {
    fill: white;
}
.svgbob .end_marked_arrow {
    marker-end: url(#arrow);
}
.svgbob .start_marked_arrow {
    marker-start: url(#arrow);
}
.svgbob .end_marked_diamond {
    marker-end: url(#diamond);
}
.svgbob .start_marked_diamond {
    marker-start: url(#diamond);
}
.svgbob .end_marked_circle {
    marker-end: url(#circle);
}
.svgbob .start_marked_circle {
    marker-start: url(#circle);
}
.svgbob .end_marked_open_circle {
    marker-end: url(#open_circle);
}
.svgbob .start_marked_open_circle {
    marker-start: url(#open_circle);
}
.svgbob .end_marked_big_open_circle {
    marker-end: url(#big_open_circle);
}
.svgbob .start_marked_big_open_circle {
    marker-start: url(#big_open_circle);
}<!--separator--></style><defs><marker id="arrow" viewBox="-2 -2 8 8" refX="4" refY="2" markerWidth="7" markerHeight="7" orient="auto-start-reverse"><polygon points="0,0 0,4 4,2 0,0"></polygon></marker><marker id="diamond" viewBox="-2 -2 8 8" refX="4" refY="2" markerWidth="7" markerHeight="7" orient="auto-start-reverse"><polygon points="0,2 2,0 4,2 2,4 0,2"></polygon></marker><marker id="circle" viewBox="0 0 8 8" refX="4" refY="4" markerWidth="7" markerHeight="7" orient="auto-start-reverse"><circle cx="4" cy="4" r="2" class="filled"></circle></marker><marker id="open_circle" viewBox="0 0 8 8" refX="4" refY="4" markerWidth="7" markerHeight="7" orient="auto-start-reverse"><circle cx="4" cy="4" r="2" class="bg_filled"></circle></marker><marker id="big_open_circle" viewBox="0 0 8 8" refX="4" refY="4" markerWidth="7" markerHeight="7" orient="auto-start-reverse"><circle cx="4" cy="4" r="3" class="bg_filled"></circle></marker></defs><rect class="backdrop" x="0" y="0" width="328" height="320"></rect><text x="74" y="12" >.</text><text x="90" y="12" >:H@@@MM@M#H</text><line x1="184" y1="0" x2="176" y2="16" class="solid"></line><text x="186" y="12" >.,</text><line x1="200" y1="8" x2="204" y2="8" class="solid"></line><text x="210" y="12" >%;,</text><text x="50" y="28" >,</text><text x="66" y="28" >X</text><line x1="76" y1="16" x2="76" y2="24" class="solid"></line><line x1="92" y1="16" x2="92" y2="24" class="solid"></line><text x="98" y="28" >M@@M@MM%</text><line x1="160" y1="22" x2="168" y2="22" class="solid"></line><line x1="160" y1="26" x2="168" y2="26" class="solid"></line><text x="170" y="28" >,</text><line x1="176" y1="24" x2="184" y2="24" class="solid"></line><text x="186" y="28" >%HMMM@X</text><line x1="248" y1="16" x2="240" y2="32" class="solid"></line><text x="250" y="28" >,</text><text x="58" y="44" >@MM;</text><text x="98" y="44" >$M@@MH</text><line x1="148" y1="40" x2="160" y2="40" class="solid"></line><text x="162" y="44" >,;</text><text x="186" y="44" >MMMM@MMMM@</text><text x="34" y="60" >;@M@@M</text><line x1="80" y1="56" x2="88" y2="56" class="solid"></line><text x="98" y="60" >XM@X;.</text><line x1="152" y1="56" x2="164" y2="56" class="solid"></line><text x="178" y="60" >X</text><text x="194" y="60" >XXHHH@M@M</text><rect x="264" y="52" width="8" height="8" class="solid filled" rx="0"></rect><text x="274" y="60" >@</text><line x1="288" y1="48" x2="280" y2="64" class="solid"></line><text x="290" y="60" >.</text><text x="18" y="76" >,%MM@@MH</text><text x="90" y="76" >,@%</text><line x1="112" y1="70" x2="120" y2="70" class="solid"></line><line x1="112" y1="74" x2="120" y2="74" class="solid"></line><text x="218" y="76" >.</text><line x1="224" y1="72" x2="248" y2="72" class="solid"></line><line x1="248" y1="70" x2="256" y2="70" class="solid"></line><line x1="248" y1="74" x2="256" y2="74" class="solid"></line><line x1="256" y1="72" x2="264" y2="72" class="solid"></line><line x1="264" y1="70" x2="272" y2="70" class="solid"></line><line x1="264" y1="74" x2="272" y2="74" class="solid"></line><text x="274" y="76" >:</text><line x1="280" y1="70" x2="288" y2="70" class="solid"></line><line x1="280" y1="74" x2="288" y2="74" class="solid"></line><text x="290" y="76" >,.</text><line x1="16" y1="88" x2="24" y2="88" class="solid"></line><text x="26" y="92" >@#@@@MX</text><text x="90" y="92" >.,</text><line x1="216" y1="88" x2="224" y2="88" class="solid"></line><text x="226" y="92" >%HX$$%%%+;</text><line x1="8" y1="102" x2="16" y2="102" class="solid"></line><line x1="8" y1="106" x2="16" y2="106" class="solid"></line><line x1="16" y1="104" x2="24" y2="104" class="solid"></line><text x="26" y="108" >.</text><line x1="40" y1="96" x2="24" y2="128" class="solid"></line><text x="42" y="108" >@M@M$</text><text x="226" y="108" >.;@MMMM@MM:</text><text x="10" y="124" >X@</text><line x1="40" y1="120" x2="48" y2="120" class="solid"></line><text x="50" y="124" >$MM</text><text x="242" y="124" >.</text><line x1="248" y1="120" x2="252" y2="120" class="solid"></line><text x="258" y="124" >MM@@@M$</text><text x="2" y="140" >,@M@H:</text><text x="58" y="140" >:@:</text><text x="242" y="140" >.</text><line x1="256" y1="136" x2="268" y2="136" class="solid"></line><text x="274" y="140" >#@@@@</text><line x1="312" y1="136" x2="320" y2="136" class="solid"></line><text x="2" y="156" >,@@@MMX,</text><text x="74" y="156" >.</text><line x1="248" y1="144" x2="240" y2="160" class="solid"></line><text x="250" y="156" >H</text><line x1="256" y1="152" x2="264" y2="152" class="solid"></line><text x="274" y="156" >;@M@M</text><line x1="312" y1="150" x2="320" y2="150" class="solid"></line><line x1="312" y1="154" x2="320" y2="154" class="solid"></line><text x="2" y="172" >.H@@@@M@</text><line x1="68" y1="168" x2="72" y2="168" class="solid"></line><text x="74" y="172" >,</text><text x="242" y="172" >%MM</text><line x1="268" y1="168" x2="272" y2="168" class="solid"></line><text x="274" y="172" >..%#$.</text><line x1="16" y1="176" x2="8" y2="192" class="solid"></line><text x="18" y="188" >MMMM@MMH</text><line x1="88" y1="176" x2="80" y2="192" class="solid"></line><text x="90" y="188" >.</text><text x="242" y="188" >XM@MH;</text><line x1="296" y1="184" x2="304" y2="184" class="solid"></line><text x="306" y="188" >;</text><line x1="24" y1="192" x2="16" y2="208" class="solid"></line><text x="26" y="204" >%+%$XHH@$</text><line x1="96" y1="198" x2="104" y2="198" class="solid"></line><line x1="96" y1="202" x2="104" y2="202" class="solid"></line><text x="218" y="204" >,</text><text x="234" y="204" >.H@@@@MX,</text><text x="26" y="220" >.</text><line x1="32" y1="214" x2="40" y2="214" class="solid"></line><line x1="32" y1="218" x2="40" y2="218" class="solid"></line><line x1="200" y1="216" x2="208" y2="216" class="solid"></line><text x="210" y="220" >%H.,@@@@@MX,</text><text x="26" y="236" >.%MM@@@HHHXX$$$%</text><line x1="156" y1="232" x2="168" y2="232" class="solid"></line><text x="178" y="236" >.:$MMX</text><line x1="232" y1="232" x2="240" y2="232" class="solid"></line><text x="242" y="236" >M@@MM%.</text><line x1="40" y1="246" x2="48" y2="246" class="solid"></line><line x1="40" y1="250" x2="48" y2="250" class="solid"></line><text x="50" y="252" >XMMM@MM@MM#H;,</text><line x1="160" y1="248" x2="172" y2="248" class="solid"></line><text x="178" y="252" >HMM@M+</text><line x1="240" y1="240" x2="232" y2="256" class="solid"></line><text x="242" y="252" >MMMX</text><line x1="272" y1="246" x2="280" y2="246" class="solid"></line><line x1="272" y1="250" x2="280" y2="250" class="solid"></line><line x1="56" y1="262" x2="64" y2="262" class="solid"></line><line x1="56" y1="266" x2="64" y2="266" class="solid"></line><text x="66" y="268" >%@M@M</text><rect x="104" y="260" width="8" height="8" class="solid filled" rx="0"></rect><text x="114" y="268" >@$</text><line x1="144" y1="262" x2="152" y2="262" class="solid"></line><line x1="144" y1="266" x2="152" y2="266" class="solid"></line><text x="154" y="268" >$@MM@@@M;</text><text x="234" y="268" >%M%</text><line x1="256" y1="262" x2="264" y2="262" class="solid"></line><line x1="256" y1="266" x2="264" y2="266" class="solid"></line><text x="74" y="284" >,:+$</text><text x="122" y="284" >,</text><text x="138" y="284" >H#MMMMMMM@</text><line x1="216" y1="280" x2="224" y2="280" class="solid"></line><line x1="232" y1="280" x2="240" y2="280" class="solid"></line><text x="242" y="284" >,</text><line x1="120" y1="294" x2="128" y2="294" class="solid"></line><line x1="120" y1="298" x2="128" y2="298" class="solid"></line><line x1="132" y1="296" x2="140" y2="296" class="solid"></line><text x="146" y="300" >%%%%+</text><line x1="192" y1="288" x2="184" y2="304" class="solid"></line><text x="194" y="300" >:</text><line x1="200" y1="296" x2="208" y2="296" class="solid"></line><text x="210" y="300" >.</text><g><line x1="64" y1="16" x2="52" y2="40" class="solid"></line><line x1="40" y1="40" x2="52" y2="40" class="solid"></line></g><g><line x1="180" y1="40" x2="172" y2="56" class="solid"></line><line x1="180" y1="40" x2="188" y2="56" class="solid"></line></g><g><line x1="268" y1="40" x2="280" y2="40" class="solid"></line><line x1="268" y1="40" x2="268" y2="52" class="solid"></line></g><g><line x1="80" y1="112" x2="76" y2="120" class="solid"></line><line x1="76" y1="120" x2="76" y2="128" class="solid"></line></g><g><line x1="40" y1="216" x2="104" y2="216" class="solid"></line><path d="M 104,216 A 8,8 0,0,1 110,220" class="nofill"></path><line x1="110" y1="220" x2="112" y2="224" class="solid"></line></g><g><line x1="108" y1="268" x2="108" y2="280" class="solid"></line><line x1="108" y1="280" x2="120" y2="280" class="solid"></line></g><g><line x1="128" y1="264" x2="140" y2="264" class="solid"></line><path d="M 140,264 A 8,8 0,0,1 148,272" class="nofill"></path></g><g><path d="M 136,264 A 3,3 0,0,1 138,268" class="nofill"></path><line x1="138" y1="268" x2="128" y2="288" class="solid"></line></g></svg>